<?xml version="1.0" encoding="utf-8"?>
<!-- Generator: Adobe Illustrator 23.0.2, SVG Export Plug-In . SVG Version: 6.00 Build 0)  -->
<svg version="1.1" id="Layer_1" xmlns="http://www.w3.org/2000/svg" xmlns:xlink="http://www.w3.org/1999/xlink" x="0px" y="0px"
	 viewBox="0 0 85 85" style="enable-background:new 0 0 85 85;" xml:space="preserve">
<g>
	<path d="M12.4,11.3h3.2l7.7,21.1h-3.1L18,26.1H9.7l-2.3,6.3H4.4L12.4,11.3z M17.1,23.7l-3.2-9.3l-3.4,9.3H17.1z"/>
	<path d="M25.3,11.2h2.5v7.7c0.6-0.7,1.2-1.3,2-1.7s1.6-0.6,2.6-0.6c1.9,0,3.5,0.7,4.7,2c1.2,1.3,1.8,3.3,1.8,5.8
		c0,2.4-0.6,4.5-1.8,6.1c-1.2,1.6-2.8,2.4-4.9,2.4c-1.2,0-2.2-0.3-3-0.8c-0.5-0.3-1-0.9-1.5-1.6v2h-2.4V11.2z M35.2,28.9
		c0.7-1.1,1-2.6,1-4.4c0-1.6-0.3-3-1-4c-0.7-1.1-1.7-1.6-3.1-1.6c-1.2,0-2.2,0.4-3.1,1.3c-0.9,0.9-1.3,2.3-1.3,4.3
		c0,1.4,0.2,2.6,0.5,3.5c0.7,1.7,2,2.5,3.8,2.5C33.4,30.6,34.5,30,35.2,28.9z"/>
	<path d="M53,18.5c1.4,1.3,2,3.3,2,5.8c0,2.5-0.6,4.5-1.8,6.1c-1.2,1.6-3.1,2.4-5.6,2.4c-2.1,0-3.8-0.7-5-2.1s-1.9-3.4-1.9-5.8
		c0-2.6,0.7-4.6,2-6.2c1.3-1.5,3.1-2.3,5.2-2.3C50,16.5,51.7,17.2,53,18.5z M51.4,28.8c0.6-1.3,0.9-2.7,0.9-4.3
		c0-1.4-0.2-2.6-0.7-3.5c-0.7-1.4-2-2.1-3.7-2.1c-1.6,0-2.7,0.6-3.4,1.8c-0.7,1.2-1.1,2.7-1.1,4.4c0,1.6,0.4,3,1.1,4.1
		c0.7,1.1,1.8,1.6,3.4,1.6C49.6,30.7,50.8,30,51.4,28.8z"/>
	<path d="M60.8,17v10.2c0,0.8,0.1,1.4,0.4,1.9c0.4,0.9,1.3,1.4,2.5,1.4c1.8,0,2.9-0.8,3.6-2.4c0.3-0.9,0.5-2,0.5-3.5V17h2.6v15.4
		h-2.4l0-2.3c-0.3,0.6-0.7,1.1-1.2,1.5c-1,0.8-2.1,1.2-3.5,1.2c-2.2,0-3.6-0.7-4.4-2.2c-0.4-0.8-0.6-1.8-0.6-3.1V17H60.8z"/>
	<path d="M75.1,12.7h2.6V17h2.5v2.1h-2.5v10c0,0.5,0.2,0.9,0.5,1.1c0.2,0.1,0.5,0.2,1,0.2c0.1,0,0.3,0,0.4,0s0.3,0,0.5,0v2.1
		c-0.3,0.1-0.6,0.1-0.9,0.2c-0.3,0-0.7,0.1-1,0.1c-1.2,0-2-0.3-2.5-0.9c-0.4-0.6-0.6-1.4-0.6-2.4V19.1H73V17h2.1V12.7z"/>
</g>
<g>
	<path d="M5.6,41.8h5.2v4.4c1.2-1.5,2.4-2.7,3.4-3.4c1.7-1.2,3.7-1.8,5.9-1.8c2.5,0,4.5,0.6,6,1.8c0.9,0.7,1.6,1.7,2.3,3.1
		c1.2-1.7,2.5-2.9,4.1-3.7c1.6-0.8,3.3-1.2,5.3-1.2c4.2,0,7.1,1.5,8.6,4.5c0.8,1.6,1.2,3.8,1.2,6.6v20.8h-5.4V51.4
		c0-2.1-0.5-3.5-1.6-4.3c-1-0.8-2.3-1.2-3.8-1.2c-2.1,0-3.8,0.7-5.3,2.1s-2.2,3.7-2.2,6.9v18.2h-5.3V52.7c0-2.1-0.3-3.7-0.8-4.6
		c-0.8-1.5-2.3-2.2-4.5-2.2c-2,0-3.8,0.8-5.4,2.3c-1.6,1.5-2.4,4.3-2.4,8.3v16.6H5.6V41.8z"/>
	<path d="M74.6,42.7c2.1,1,3.6,2.4,4.7,4c1,1.6,1.7,3.4,2.1,5.5c0.3,1.4,0.5,3.7,0.5,6.9H59.2c0.1,3.2,0.8,5.7,2.2,7.6
		c1.4,1.9,3.5,2.9,6.4,2.9c2.7,0,4.9-0.9,6.5-2.7c0.9-1.1,1.5-2.3,1.9-3.7h5.2c-0.1,1.1-0.6,2.4-1.4,3.8c-0.8,1.4-1.6,2.6-2.6,3.5
		c-1.6,1.6-3.5,2.6-5.9,3.1c-1.3,0.3-2.7,0.5-4.3,0.5c-3.9,0-7.1-1.4-9.8-4.2c-2.7-2.8-4-6.8-4-11.9c0-5,1.4-9.1,4.1-12.2
		c2.7-3.1,6.2-4.7,10.6-4.7C70.4,41.1,72.6,41.7,74.6,42.7z M76.5,55c-0.2-2.3-0.7-4.1-1.5-5.5c-1.4-2.5-3.8-3.8-7.1-3.8
		c-2.4,0-4.4,0.9-6,2.6c-1.6,1.7-2.5,3.9-2.6,6.6H76.5z"/>
</g>
</svg>
